<svg width="60" height="60" viewBox="0 0 60 60" fill="none" xmlns="http://www.w3.org/2000/svg">
<path d="M32.8532 12.0172L34.8863 18.2746C35.5557 20.3347 37.4755 21.7295 39.6416 21.7295H46.221C49.1271 21.7295 50.3355 25.4483 47.9843 27.1565L42.6615 31.0238C40.9091 32.297 40.1758 34.5539 40.8451 36.614L42.8783 42.8713C43.7763 45.6353 40.6129 47.9336 38.2618 46.2254L32.9389 42.3582C31.1865 41.0849 28.8135 41.0849 27.0611 42.3582L21.7383 46.2254C19.3871 47.9336 16.2237 45.6353 17.1217 42.8713L19.1549 36.614C19.8242 34.5539 19.0909 32.297 17.3385 31.0238L12.0157 27.1565C9.66454 25.4483 10.8729 21.7295 13.779 21.7295H20.3584C22.5245 21.7295 24.4443 20.3347 25.1137 18.2746L27.1468 12.0172C28.0449 9.25329 31.9551 9.25329 32.8532 12.0172Z" fill="#F1E27C" stroke="#31363D" stroke-width="2"/>
</svg>
